<?xml version="1.0" encoding="UTF-8"?>
<svg id="Camada_1" data-name="Camada 1" xmlns="http://www.w3.org/2000/svg" viewBox="0 0 696.66 299.25">
  <defs>
    <style>
      .cls-1 {
        fill: red;
        stroke-width: 0px;
      }
    </style>
  </defs>
  <path class="cls-1" d="M82.97,52.64v246.52h68.95V52.51h83.4v-31.49c12.87,13.69,26.41,24.26,41.78,32.44,15.28,8.13,31.57,13.32,48.54,16.68-2.21.79-4.32,1.19-6.43,1.59-103.71,19.64-158.04,129.65-115.74,223.43,1.36,3.02,3.07,4.11,6.42,4.08,21.31-.16,42.63-.07,63.94-.09,1.09,0,2.17-.2,3.81-.36-1.2-1.68-2.02-2.88-2.89-4.05-33.32-44.46-28.77-105.37,10.77-144.3,36.45-35.88,95.51-34.43,129.93,3.49,6.42,7.07,11.63,15.23,17.54,23.06,16.71-10.72,33.77-21.66,50.81-32.58-19.27-35.85-60.47-63.07-113.36-74.39,36.59-6.08,66.23-22.36,90.93-50.26v32.97h83.32v246.3h68.9V52.43h83.06V.21c-1.28-.08-2.24-.2-3.21-.2-96.58,0-193.16-.02-289.74.06-1.82,0-3.92.73-5.42,1.79-30.52,21.63-67.6,21.93-98.5.88-2.28-1.55-5.41-2.62-8.14-2.63C196.24-.02,100.83,0,5.41,0c-1.77,0-3.55,0-5.41,0v52.64h82.97ZM323.35,202.1c.42,1.17.59,1.81.87,2.38,8.5,17.31,17.08,34.57,25.44,51.94,1.38,2.88,3.31,3.13,5.96,3.13,24.64-.05,49.27-.03,73.91-.03,1.96,0,3.93,0,6.56,0-3.36,14.78-9.88,27.28-19.08,39.35,2.33.12,3.93.28,5.52.28,20.31.02,40.62-.09,60.93.1,3.8.04,5.51-1.33,6.96-4.71,8.11-18.87,12.52-38.57,13.11-59.02.32-11.06-.57-22.15-.92-33.42h-179.24Z"/>
  <path class="cls-1" d="M82.97,52.64H0V0c1.86,0,3.64,0,5.41,0C100.83,0,196.24-.02,291.65.11c2.74,0,5.87,1.08,8.14,2.63,30.9,21.05,67.98,20.75,98.5-.88,1.49-1.06,3.6-1.78,5.42-1.79C500.29,0,596.87,0,693.45.01c.96,0,1.93.12,3.21.2v52.22h-83.06v246.6h-68.9V52.73h-83.32V19.76c-24.7,27.89-54.33,44.17-90.93,50.26,52.89,11.32,94.09,38.54,113.36,74.39-17.04,10.93-34.1,21.87-50.81,32.58-5.9-7.83-11.12-15.99-17.54-23.06-34.42-37.92-93.49-39.37-129.93-3.49-39.54,38.93-44.09,99.84-10.77,144.3.87,1.16,1.69,2.36,2.89,4.05-1.63.16-2.72.36-3.81.36-21.31.02-42.63-.06-63.94.09-3.35.02-5.05-1.07-6.42-4.08-42.3-93.77,12.04-203.79,115.74-223.43,2.11-.4,4.21-.81,6.43-1.59-16.97-3.36-33.25-8.55-48.54-16.68-15.37-8.18-28.91-18.75-41.78-32.44v31.49h-83.4v246.64h-68.95V52.64Z"/>
  <path class="cls-1" d="M323.35,202.1h179.24c.35,11.27,1.25,22.37.92,33.42-.59,20.45-5,40.16-13.11,59.02-1.45,3.38-3.16,4.75-6.96,4.71-20.31-.19-40.62-.09-60.93-.1-1.6,0-3.19-.16-5.52-.28,9.2-12.07,15.72-24.57,19.08-39.35-2.63,0-4.59,0-6.56,0-24.64,0-49.27-.02-73.91.03-2.64,0-4.57-.25-5.96-3.13-8.36-17.37-16.94-34.64-25.44-51.94-.28-.58-.45-1.21-.87-2.38Z"/>
</svg>